<svg id="Capa_2" data-name="Capa 2" xmlns="http://www.w3.org/2000/svg" viewBox="0 0 192.72 276.47"><title>mic</title><rect x="38.21" y="256.4" width="117.39" height="19.57" rx="8.08" stroke="#1d1d1b" stroke-miterlimit="10"/><rect x="41.93" y="0.5" width="110.36" height="190.49" rx="44.22" stroke="#1d1d1b" stroke-miterlimit="10"/><rect x="86.53" y="209.22" width="19.66" height="47.18" stroke="#1d1d1b" stroke-miterlimit="10"/><path d="M163.82,214.46s-2.65-9.07-11-7.93c0,0-7.94.75-8.32,7.93,0,0-9.07,92.6,85.8,107V302.15S161.93,297.24,163.82,214.46Z" transform="translate(-143.81 -92.64)" stroke="#1d1d1b" stroke-miterlimit="10"/><path d="M316.52,214.46s2.65-9.07,11-7.93c0,0,7.94.75,8.32,7.93,0,0,9.07,92.6-85.8,107V302.15S318.41,297.24,316.52,214.46Z" transform="translate(-143.81 -92.64)" stroke="#1d1d1b" stroke-miterlimit="10"/></svg>