<svg xmlns="http://www.w3.org/2000/svg" xmlns:xlink="http://www.w3.org/1999/xlink" viewBox="0 0 375 375"><title>trash</title><g id="Capa_2" data-name="Capa 2"><image width="500" height="500" transform="translate(0 0) scale(0.75)" xlink:href="mks%20(4).png"/></g><g id="Capa_1" data-name="Capa 1"><path d="M166.39,136.9H348.52A19.07,19.07,0,0,1,367.6,156v18.16a7.65,7.65,0,0,1-7.65,7.65H155a7.65,7.65,0,0,1-7.65-7.65V156a19.07,19.07,0,0,1,19.07-19.07Z" transform="translate(-101.86 8.03) rotate(-14.7)" stroke="#1d1d1b" stroke-miterlimit="10"/><path d="M225.76,119.27h47.47a10.51,10.51,0,0,1,10.51,10.51v5.44a2.87,2.87,0,0,1-2.87,2.87H218.11a2.87,2.87,0,0,1-2.87-2.87v-5.44a10.51,10.51,0,0,1,10.51-10.51Z" transform="translate(-94.35 5.01) rotate(-14.7)" stroke="#1d1d1b" stroke-miterlimit="10"/><path d="M271,387.76h60.09s14.55-4.92,15.31-17l16.06-174.24s1.7-7.37-4.15-7.94H234.44L170,205.47l14.58,163.58s1.13,15.68,17,18.71Z" transform="translate(-69.86 -62.5)" stroke="#1d1d1b" stroke-miterlimit="10"/></g></svg>